<svg width="32" height="32" viewBox="0 0 32 32" fill="none" xmlns="http://www.w3.org/2000/svg">
<rect x="0.5" y="0.5" width="31" height="31" rx="15.5" fill="#828282"/>
<path d="M24 26H22V24C22 23.2044 21.6839 22.4413 21.1213 21.8787C20.5587 21.3161 19.7956 21 19 21H13C12.2044 21 11.4413 21.3161 10.8787 21.8787C10.3161 22.4413 10 23.2044 10 24V26H8V24C8 22.6739 8.52678 21.4021 9.46447 20.4645C10.4021 19.5268 11.6739 19 13 19H19C20.3261 19 21.5979 19.5268 22.5355 20.4645C23.4732 21.4021 24 22.6739 24 24V26ZM16 17C15.2121 17 14.4319 16.8448 13.7039 16.5433C12.9759 16.2417 12.3145 15.7998 11.7574 15.2426C11.2002 14.6855 10.7583 14.0241 10.4567 13.2961C10.1552 12.5681 10 11.7879 10 11C10 10.2121 10.1552 9.43185 10.4567 8.7039C10.7583 7.97595 11.2002 7.31451 11.7574 6.75736C12.3145 6.20021 12.9759 5.75825 13.7039 5.45672C14.4319 5.15519 15.2121 5 16 5C17.5913 5 19.1174 5.63214 20.2426 6.75736C21.3679 7.88258 22 9.4087 22 11C22 12.5913 21.3679 14.1174 20.2426 15.2426C19.1174 16.3679 17.5913 17 16 17ZM16 15C17.0609 15 18.0783 14.5786 18.8284 13.8284C19.5786 13.0783 20 12.0609 20 11C20 9.93913 19.5786 8.92172 18.8284 8.17157C18.0783 7.42143 17.0609 7 16 7C14.9391 7 13.9217 7.42143 13.1716 8.17157C12.4214 8.92172 12 9.93913 12 11C12 12.0609 12.4214 13.0783 13.1716 13.8284C13.9217 14.5786 14.9391 15 16 15Z" fill="white"/>
<rect x="0.5" y="0.5" width="31" height="31" rx="15.5" stroke="white"/>
</svg>
