<svg width="24" height="24" viewBox="0 0 24 24" fill="none" xmlns="http://www.w3.org/2000/svg">
<path d="M18.5588 17.5042L18.9118 18C18.9609 18.0691 18.9909 18.1513 18.9982 18.2373C19.0056 18.3233 18.9901 18.4098 18.9534 18.4871C18.9168 18.5643 18.8605 18.6293 18.7908 18.6747C18.7211 18.7201 18.6408 18.7442 18.5588 18.7442H4.44118C4.35924 18.7442 4.27893 18.7201 4.20924 18.6747C4.13954 18.6293 4.08322 18.5643 4.04658 18.4871C4.00994 18.4098 3.99442 18.3233 4.00178 18.2373C4.00914 18.1513 4.03908 18.0691 4.08824 18L4.44118 17.5042V9.44186C4.44118 7.46816 5.18487 5.57529 6.50866 4.17967C7.83244 2.78405 9.62788 2 11.5 2C13.3721 2 15.1676 2.78405 16.4913 4.17967C17.8151 5.57529 18.5588 7.46816 18.5588 9.44186V17.5042ZM9.29412 19.6744H13.7059C13.7059 20.2912 13.4735 20.8827 13.0598 21.3189C12.6461 21.755 12.085 22 11.5 22C10.915 22 10.3539 21.755 9.94021 21.3189C9.52652 20.8827 9.29412 20.2912 9.29412 19.6744Z" fill="#333333"/>
</svg>
