<svg width="24" height="25" viewBox="0 0 24 25" fill="none" xmlns="http://www.w3.org/2000/svg">
<g clip-path="url(#clip0_12_1095)">
<path d="M16 1.5C16.5523 1.5 17 1.94772 17 2.5V3.499L22 3.5V9.5L19.98 9.499L22.7467 17.0953C22.9105 17.532 23 18.0051 23 18.499C23 20.7082 21.2091 22.499 19 22.499C17.1368 22.499 15.5711 21.2251 15.1265 19.5008L10.8738 19.5008C10.4295 21.2256 8.86357 22.5 7 22.5C5.05513 22.5 3.43445 21.112 3.07453 19.2725C2.43558 18.939 2 18.2704 2 17.5V4.5C2 3.94772 2.44772 3.5 3 3.5H10C10.5523 3.5 11 3.94772 11 4.5V12.5C11 13.0128 11.386 13.4355 11.8834 13.4933L12 13.5H14C14.5128 13.5 14.9355 13.114 14.9933 12.6166L15 12.5V3.5H12V1.5H16ZM7 16.5C5.89543 16.5 5 17.3954 5 18.5C5 19.6046 5.89543 20.5 7 20.5C8.10457 20.5 9 19.6046 9 18.5C9 17.3954 8.10457 16.5 7 16.5ZM19 16.499C17.8954 16.499 17 17.3944 17 18.499C17 19.6036 17.8954 20.499 19 20.499C20.1046 20.499 21 19.6036 21 18.499C21 17.3944 20.1046 16.499 19 16.499ZM17.852 9.499H17V12.5C17 14.1569 15.6569 15.5 14 15.5H12C10.6941 15.5 9.58312 14.6656 9.17102 13.5009L3.99994 13.5V15.8542C4.73289 15.0238 5.80528 14.5 7 14.5C8.86393 14.5 10.4301 15.7749 10.874 17.5003H15.1257C15.5693 15.7744 17.1357 14.499 19 14.499C19.2373 14.499 19.4697 14.5197 19.6957 14.5593L17.852 9.499ZM9 8.5H4V11.5H9V8.5ZM20 5.5H17V7.5H20V5.5ZM9 5.5H4V6.5H9V5.5Z" fill="#333333"/>
</g>
<defs>
<clipPath id="clip0_12_1095">
<rect width="24" height="24" fill="white" transform="translate(0 0.5)"/>
</clipPath>
</defs>
</svg>
