<svg width="77" height="56" viewBox="0 0 77 56" fill="none" xmlns="http://www.w3.org/2000/svg">
<rect width="76.764" height="56" rx="8" fill="#4F4F4F"/>
<path d="M34.3639 33.04L34.3527 33.0512L34.3409 33.04H33.3351C33.1877 33.0398 33.0463 32.9812 32.9421 32.8769C32.8378 32.7727 32.7793 32.6313 32.7793 32.4839V23.5161C32.7803 23.369 32.8392 23.2282 32.9432 23.1242C33.0472 23.0201 33.188 22.9612 33.3351 22.96H43.4299C43.7369 22.96 43.9857 23.2092 43.9857 23.5161V32.4839C43.9847 32.631 43.9258 32.7717 43.8218 32.8758C43.7178 32.9798 43.577 33.0388 43.4299 33.04H34.3639V33.04ZM42.8651 29.68V24.08H33.8999V31.92L39.5032 26.32L42.8651 29.68ZM42.8651 31.2637L39.5032 27.9037L35.4845 31.92H42.8651V31.2637ZM36.1412 27.44C35.844 27.44 35.559 27.322 35.3488 27.112C35.1387 26.9019 35.0206 26.617 35.0206 26.32C35.0206 26.0229 35.1387 25.7381 35.3488 25.528C35.559 25.318 35.844 25.2 36.1412 25.2C36.4384 25.2 36.7235 25.318 36.9336 25.528C37.1438 25.7381 37.2619 26.0229 37.2619 26.32C37.2619 26.617 37.1438 26.9019 36.9336 27.112C36.7235 27.322 36.4384 27.44 36.1412 27.44Z" fill="#E0E0E0"/>
</svg>
