<svg width="32" height="32" viewBox="0 0 32 32" fill="none" xmlns="http://www.w3.org/2000/svg">
<rect x="0.5" y="0.5" width="31" height="31" rx="15.5" fill="#828282"/>
<path d="M15.1666 7.66667C19.3066 7.66667 22.6666 11.0267 22.6666 15.1667C22.6666 19.3067 19.3066 22.6667 15.1666 22.6667C11.0266 22.6667 7.66663 19.3067 7.66663 15.1667C7.66663 11.0267 11.0266 7.66667 15.1666 7.66667ZM15.1666 21C18.3891 21 21 18.3892 21 15.1667C21 11.9433 18.3891 9.33333 15.1666 9.33333C11.9433 9.33333 9.33329 11.9433 9.33329 15.1667C9.33329 18.3892 11.9433 21 15.1666 21ZM22.2375 21.0592L24.595 23.4158L23.4158 24.595L21.0591 22.2375L22.2375 21.0592V21.0592Z" fill="white"/>
<rect x="0.5" y="0.5" width="31" height="31" rx="15.5" stroke="white"/>
</svg>
