<svg width="169" height="124" viewBox="0 0 169 124" fill="none" xmlns="http://www.w3.org/2000/svg">
<rect width="168.967" height="124" fill="#4F4F4F"/>
<path d="M75.638 73.16L75.6134 73.1848L75.5875 73.16H73.3736C73.049 73.1597 72.7378 73.0298 72.5084 72.7989C72.279 72.568 72.1501 72.255 72.1501 71.9287V52.0713C72.1524 51.7457 72.282 51.434 72.5109 51.2036C72.7398 50.9732 73.0497 50.8426 73.3736 50.84H95.5934C96.2693 50.84 96.8169 51.3918 96.8169 52.0713V71.9287C96.8146 72.2543 96.685 72.566 96.4561 72.7964C96.2272 73.0268 95.9173 73.1574 95.5934 73.16H75.638V73.16ZM94.3502 65.72V53.32H74.6168V70.68L86.9502 58.28L94.3502 65.72ZM94.3502 69.2267L86.9502 61.7867L78.1047 70.68H94.3502V69.2267ZM79.5502 60.76C78.896 60.76 78.2686 60.4987 77.806 60.0336C77.3434 59.5685 77.0835 58.9377 77.0835 58.28C77.0835 57.6223 77.3434 56.9915 77.806 56.5264C78.2686 56.0613 78.896 55.8 79.5502 55.8C80.2044 55.8 80.8318 56.0613 81.2944 56.5264C81.757 56.9915 82.0168 57.6223 82.0168 58.28C82.0168 58.9377 81.757 59.5685 81.2944 60.0336C80.8318 60.4987 80.2044 60.76 79.5502 60.76Z" fill="#E0E0E0"/>
</svg>
